<svg height="480pt" viewBox="0 -31 480 479" width="480pt" xmlns="http://www.w3.org/2000/svg"><path d="m336 224.5v160h-336v-160zm0 0" fill="#70b48f"/><path d="m368 352.5v64h-336v-160h336v64h64v-32l48 48-48 48v-32zm0 0" fill="#599072"/><path d="m80 384.5v-16h-16v-64h16v-16h240v16h16v64h-16v16zm0 0" fill="#70b48f"/><path d="m136 160.5v-160h336v160zm0 0" fill="#70b48f"/><path d="m112 96.5v-64h336v160h-336v-64h-64v32l-48-48 48-48v32zm0 0" fill="#599072"/><path d="m400 64.5v16h16v64h-16v16h-240v-16h-16v-64h16v-16zm0 0" fill="#70b48f"/><g fill="#5b6673"><path d="m208 281.972656v-25.472656h-16v25.472656c-9.289062 3.3125-16 12.113282-16 22.527344v16c0 13.230469 10.769531 24 24 24 4.40625 0 8 3.585938 8 8v16c0 4.414062-3.59375 8-8 8s-8-3.585938-8-8v-8h-16v8c0 10.414062 6.710938 19.214844 16 22.527344v25.472656h16v-25.472656c9.289062-3.3125 16-12.113282 16-22.527344v-16c0-13.230469-10.769531-24-24-24-4.40625 0-8-3.585938-8-8v-16c0-4.414062 3.59375-8 8-8s8 3.585938 8 8v8h16v-8c0-10.414062-6.710938-19.214844-16-22.527344zm0 0"/><path d="m240 328.5h16v16h-16zm0 0"/><path d="m144 328.5h16v16h-16zm0 0"/><path d="m288 57.972656v-25.472656h-16v25.472656c-9.289062 3.3125-16 12.113282-16 22.527344v16c0 13.230469 10.769531 24 24 24 4.40625 0 8 3.585938 8 8v16c0 4.414062-3.59375 8-8 8s-8-3.585938-8-8v-8h-16v8c0 10.414062 6.710938 19.214844 16 22.527344v25.472656h16v-25.472656c9.289062-3.3125 16-12.113282 16-22.527344v-16c0-13.230469-10.769531-24-24-24-4.40625 0-8-3.585938-8-8v-16c0-4.414062 3.59375-8 8-8s8 3.585938 8 8v8h16v-8c0-10.414062-6.710938-19.214844-16-22.527344zm0 0"/><path d="m320 104.5h16v16h-16zm0 0"/><path d="m224 104.5h16v16h-16zm0 0"/></g></svg>